<svg width="390" height="64" viewBox="0 0 390 64" fill="none" xmlns="http://www.w3.org/2000/svg">
<path d="M-20.736 48H-22.736V50H-20.736V48ZM-20.736 6.72H-18.736V4.72H-20.736V6.72ZM-29.888 6.72H-31.888V8.72H-29.888V6.72ZM-29.888 0.319996V-1.68H-31.888V0.319996H-29.888ZM-13.248 0.319996H-11.248V-1.68H-13.248V0.319996ZM-13.248 48V50H-11.248V48H-13.248ZM-18.736 48V6.72H-22.736V48H-18.736ZM-20.736 4.72H-29.888V8.72H-20.736V4.72ZM-27.888 6.72V0.319996H-31.888V6.72H-27.888ZM-29.888 2.32H-13.248V-1.68H-29.888V2.32ZM-15.248 0.319996V48H-11.248V0.319996H-15.248ZM-13.248 46H-20.736V50H-13.248V46ZM0.4865 48H-1.5135V50H0.4865V48ZM0.4865 39.68V37.68H-1.5135V39.68H0.4865ZM7.8465 39.68H9.8465V37.68H7.8465V39.68ZM7.8465 48V50H9.8465V48H7.8465ZM2.4865 48V39.68H-1.5135V48H2.4865ZM0.4865 41.68H7.8465V37.68H0.4865V41.68ZM5.8465 39.68V48H9.8465V39.68H5.8465ZM7.8465 46H0.4865V50H7.8465V46ZM31.3655 48H29.3655V50H31.3655V48ZM31.3655 0.319996V-1.68H29.3655V0.319996H31.3655ZM57.1575 2.112L56.2757 3.90711L56.2945 3.91633L56.3134 3.92516L57.1575 2.112ZM62.9175 7.232L61.2054 8.26574L61.2097 8.27298L61.2142 8.28019L62.9175 7.232ZM62.8535 23.168L61.1648 22.0963L61.1574 22.108L61.1502 22.1198L62.8535 23.168ZM57.1575 28.288L56.2757 26.4929L56.2757 26.4929L57.1575 28.288ZM38.9175 30.08V28.08H36.9175V30.08H38.9175ZM38.9175 48V50H40.9175V48H38.9175ZM38.9175 23.36H36.9175V25.36H38.9175V23.36ZM56.3895 19.52L58.0991 20.558L58.1071 20.5448L58.1149 20.5314L56.3895 19.52ZM56.3895 10.88L54.6641 11.8914L54.6719 11.9048L54.6799 11.918L56.3895 10.88ZM53.3815 8.064L52.4403 9.8287L52.4635 9.84109L52.4871 9.85285L53.3815 8.064ZM38.9175 7.04V5.04H36.9175V7.04H38.9175ZM33.3655 48V0.319996H29.3655V48H33.3655ZM31.3655 2.32H48.7095V-1.68H31.3655V2.32ZM48.7095 2.32C51.6587 2.32 54.1635 2.86954 56.2757 3.90711L58.0393 0.316891C55.2875 -1.03488 52.1603 -1.68 48.7095 -1.68V2.32ZM56.3134 3.92516C58.4405 4.91533 60.0527 6.35655 61.2054 8.26574L64.6296 6.19826C63.0517 3.58478 60.8239 1.61266 58.0016 0.298835L56.3134 3.92516ZM61.2142 8.28019C62.3506 10.1268 62.9655 12.4145 62.9655 15.232H66.9655C66.9655 11.8202 66.2151 8.77453 64.6208 6.1838L61.2142 8.28019ZM62.9655 15.232C62.9655 17.9898 62.3371 20.2491 61.1648 22.0963L64.5422 24.2396C66.1859 21.6495 66.9655 18.6182 66.9655 15.232H62.9655ZM61.1502 22.1198C59.9909 24.0037 58.3831 25.4577 56.2757 26.4929L58.0393 30.0831C60.7959 28.729 62.9854 26.7697 64.5568 24.2162L61.1502 22.1198ZM56.2757 26.4929C54.1635 27.5305 51.6587 28.08 48.7095 28.08V32.08C52.1603 32.08 55.2875 31.4349 58.0393 30.0831L56.2757 26.4929ZM48.7095 28.08H38.9175V32.08H48.7095V28.08ZM36.9175 30.08V48H40.9175V30.08H36.9175ZM38.9175 46H31.3655V50H38.9175V46ZM38.9175 25.36H48.9015V21.36H38.9175V25.36ZM48.9015 25.36C50.8785 25.36 52.7059 24.963 54.3227 24.1007L52.4403 20.5713C51.4971 21.0743 50.3379 21.36 48.9015 21.36V25.36ZM54.3227 24.1007C55.9068 23.2558 57.1802 22.0714 58.0991 20.558L54.6799 18.482C54.1481 19.3579 53.4162 20.0508 52.4403 20.5713L54.3227 24.1007ZM58.1149 20.5314C59.0471 18.9412 59.4775 17.1299 59.4775 15.168H55.4775C55.4775 16.5341 55.1825 17.6242 54.6641 18.5086L58.1149 20.5314ZM59.4775 15.168C59.4775 13.2083 59.0478 11.4047 58.0991 9.84204L54.6799 11.918C55.1818 12.7446 55.4775 13.7997 55.4775 15.168H59.4775ZM58.1149 9.86856C57.1942 8.29788 55.9032 7.08876 54.2759 6.27514L52.4871 9.85285C53.4198 10.3192 54.1342 10.9874 54.6641 11.8914L58.1149 9.86856ZM54.3227 6.29929C52.7059 5.43699 50.8785 5.04 48.9015 5.04V9.04C50.3379 9.04 51.4971 9.32567 52.4403 9.8287L54.3227 6.29929ZM48.9015 5.04H38.9175V9.04H48.9015V5.04ZM36.9175 7.04V23.36H40.9175V7.04H36.9175ZM78.3385 46.4L77.3375 48.1315L77.3491 48.1381L78.3385 46.4ZM71.8105 39.936L70.0908 40.9571L70.0908 40.9571L71.8105 39.936ZM71.8105 21.376L73.5231 22.409L73.5302 22.3971L71.8105 21.376ZM78.3385 14.976L79.319 16.7191L79.3293 16.7134L79.3395 16.7075L78.3385 14.976ZM96.6425 14.976L95.6297 16.7006L95.6457 16.71L95.662 16.7191L96.6425 14.976ZM103.107 21.376L101.375 22.377L101.384 22.3931L101.394 22.409L103.107 21.376ZM103.107 40L104.826 41.0211L104.826 41.0211L103.107 40ZM96.5785 46.464L97.559 48.2072L97.5693 48.2014L97.5795 48.1955L96.5785 46.464ZM92.9305 40.576L93.9864 42.2746L93.9864 42.2746L92.9305 40.576ZM96.6425 36.544L94.8802 35.5984L94.8759 35.6063L94.8717 35.6143L96.6425 36.544ZM96.6425 24.832L94.8717 25.7617L94.8807 25.7788L94.8901 25.7958L96.6425 24.832ZM82.0505 20.8L81.0149 19.089L81.0047 19.0952L80.9946 19.1014L82.0505 20.8ZM78.2745 24.832L76.5221 23.8682L76.5127 23.8852L76.5037 23.9023L78.2745 24.832ZM78.2745 36.544L76.4944 37.4558L76.5079 37.482L76.5221 37.5078L78.2745 36.544ZM82.0505 40.576L80.9946 42.2746L81.0047 42.2808L81.0149 42.287L82.0505 40.576ZM87.4905 46.768C84.4939 46.768 81.7865 46.0614 79.3279 44.6619L77.3491 48.1381C80.4371 49.8959 83.8311 50.768 87.4905 50.768V46.768ZM79.3395 44.6685C76.9074 43.2625 74.978 41.3533 73.5302 38.9149L70.0908 40.9571C71.8857 43.98 74.3083 46.3802 77.3375 48.1315L79.3395 44.6685ZM73.5302 38.9149C72.1084 36.5203 71.3785 33.7854 71.3785 30.656H67.3785C67.3785 34.4386 68.27 37.8904 70.0908 40.9571L73.5302 38.9149ZM71.3785 30.656C71.3785 27.4786 72.1108 24.7505 73.5231 22.409L70.0979 20.343C68.2676 23.3775 67.3785 26.8361 67.3785 30.656H71.3785ZM73.5302 22.3971C74.9752 19.9634 76.8981 18.0809 79.319 16.7191L77.358 13.2328C74.3176 14.9431 71.8885 17.3273 70.0908 20.3549L73.5302 22.3971ZM79.3395 16.7075C81.745 15.3168 84.4463 14.608 87.4905 14.608V10.608C83.7934 10.608 80.3934 11.4779 77.3375 13.2445L79.3395 16.7075ZM87.4905 14.608C90.5826 14.608 93.2774 15.3191 95.6297 16.7006L97.6553 13.2514C94.6316 11.4756 91.2251 10.608 87.4905 10.608V14.608ZM95.662 16.7191C98.0782 18.0783 99.9744 19.9543 101.375 22.377L104.838 20.375C103.081 17.3364 100.668 14.9457 97.623 13.2328L95.662 16.7191ZM101.394 22.409C102.806 24.7505 103.539 27.4786 103.539 30.656H107.539C107.539 26.8361 106.649 23.3775 104.819 20.343L101.394 22.409ZM103.539 30.656C103.539 33.8329 102.806 36.5881 101.387 38.9789L104.826 41.0211C106.649 37.9506 107.539 34.4764 107.539 30.656H103.539ZM101.387 38.9789C99.939 41.4173 98.0096 43.3265 95.5775 44.7325L97.5795 48.1955C100.609 46.4442 103.031 44.044 104.826 41.0211L101.387 38.9789ZM95.598 44.7208C93.1854 46.0779 90.4971 46.768 87.4905 46.768V50.768C91.1399 50.768 94.5103 49.9221 97.559 48.2072L95.598 44.7208ZM87.4905 44.048C89.8724 44.048 92.059 43.4727 93.9864 42.2746L91.8746 38.8774C90.6447 39.642 89.2046 40.048 87.4905 40.048V44.048ZM93.9864 42.2746C95.8791 41.098 97.3581 39.4835 98.4133 37.4737L94.8717 35.6143C94.1349 37.0178 93.1393 38.0913 91.8746 38.8774L93.9864 42.2746ZM98.4048 37.4896C99.5141 35.4223 100.051 33.1296 100.051 30.656H96.0505C96.0505 32.5344 95.6482 34.1671 94.8802 35.5984L98.4048 37.4896ZM100.051 30.656C100.051 28.1832 99.5143 25.9035 98.3949 23.8682L94.8901 25.7958C95.648 27.1739 96.0505 28.7768 96.0505 30.656H100.051ZM98.4133 23.9023C97.3581 21.8925 95.8791 20.278 93.9864 19.1014L91.8746 22.4986C93.1393 23.2847 94.1349 24.3582 94.8717 25.7617L98.4133 23.9023ZM93.9864 19.1014C92.059 17.9033 89.8724 17.328 87.4905 17.328V21.328C89.2046 21.328 90.6447 21.734 91.8746 22.4986L93.9864 19.1014ZM87.4905 17.328C85.1422 17.328 82.967 17.9075 81.0149 19.089L83.0861 22.511C84.3767 21.7299 85.8282 21.328 87.4905 21.328V17.328ZM80.9946 19.1014C79.1105 20.2727 77.6178 21.8758 76.5221 23.8682L80.0269 25.7958C80.8085 24.3748 81.8332 23.29 83.1064 22.4986L80.9946 19.1014ZM76.5037 23.9023C75.4387 25.9309 74.9305 28.1984 74.9305 30.656H78.9305C78.9305 28.7616 79.3183 27.1464 80.0453 25.7617L76.5037 23.9023ZM74.9305 30.656C74.9305 33.1146 75.4389 35.3951 76.4944 37.4558L80.0546 35.6322C79.3181 34.1943 78.9305 32.5494 78.9305 30.656H74.9305ZM76.5221 37.5078C77.6178 39.5002 79.1105 41.1033 80.9946 42.2746L83.1064 38.8774C81.8332 38.086 80.8085 37.0012 80.0269 35.5802L76.5221 37.5078ZM81.0149 42.287C82.967 43.4685 85.1422 44.048 87.4905 44.048V40.048C85.8282 40.048 84.3767 39.6461 83.0861 38.865L81.0149 42.287ZM109.463 48H107.463V50H109.463V48ZM109.463 42.048L107.921 40.7743L107.463 41.3288V42.048H109.463ZM129.815 17.408L131.631 16.5699L130.298 13.6824L128.273 16.1343L129.815 17.408ZM130.967 19.904V21.904H134.093L132.783 19.0659L130.967 19.904ZM110.423 19.904H108.423V21.904H110.423V19.904ZM110.423 13.376V11.376H108.423V13.376H110.423ZM137.367 13.376H139.367V11.376H137.367V13.376ZM137.367 19.264L138.918 20.5261L139.367 19.9747V19.264H137.367ZM117.271 43.968L115.447 44.7887L116.777 47.7444L118.822 45.2301L117.271 43.968ZM116.119 41.408V39.408H113.026L114.295 42.2287L116.119 41.408ZM137.431 41.408H139.431V39.408H137.431V41.408ZM137.431 48V50H139.431V48H137.431ZM111.463 48V42.048H107.463V48H111.463ZM111.005 43.3217L131.357 18.6817L128.273 16.1343L107.921 40.7743L111.005 43.3217ZM127.999 18.2461L129.151 20.7421L132.783 19.0659L131.631 16.5699L127.999 18.2461ZM130.967 17.904H110.423V21.904H130.967V17.904ZM112.423 19.904V13.376H108.423V19.904H112.423ZM110.423 15.376H137.367V11.376H110.423V15.376ZM135.367 13.376V19.264H139.367V13.376H135.367ZM135.816 18.0019L115.72 42.7059L118.822 45.2301L138.918 20.5261L135.816 18.0019ZM119.095 43.1473L117.943 40.5873L114.295 42.2287L115.447 44.7887L119.095 43.1473ZM116.119 43.408H137.431V39.408H116.119V43.408ZM135.431 41.408V48H139.431V41.408H135.431ZM137.431 46H109.463V50H137.431V46ZM142.724 48H140.724V50H142.724V48ZM142.724 13.376V11.376H140.724V13.376H142.724ZM149.636 13.376H151.636V11.376H149.636V13.376ZM149.636 20.16L148.17 21.5209L151.636 25.2531V20.16H149.636ZM148.804 19.264L146.942 18.5338L146.483 19.7039L147.338 20.6249L148.804 19.264ZM152.9 14.336L153.917 16.0579L153.932 16.0494L153.946 16.0406L152.9 14.336ZM166.212 14.272L165.228 16.0131L165.228 16.0131L166.212 14.272ZM170.82 18.88L169.079 19.8641L169.079 19.8641L170.82 18.88ZM172.484 48V50H174.484V48H172.484ZM165.316 48H163.316V50H165.316V48ZM164.356 23.168L162.58 24.0868L162.586 24.0997L162.593 24.1124L164.356 23.168ZM161.604 20.352L160.584 22.0726L160.622 22.0946L160.66 22.115L161.604 20.352ZM153.604 20.352L154.575 22.1003L154.586 22.0945L154.596 22.0885L153.604 20.352ZM150.916 23.168L152.692 24.0868L152.692 24.0868L150.916 23.168ZM149.956 48V50H151.956V48H149.956ZM144.724 48V13.376H140.724V48H144.724ZM142.724 15.376H149.636V11.376H142.724V15.376ZM147.636 13.376V20.16H151.636V13.376H147.636ZM151.102 18.7991L150.27 17.9031L147.338 20.6249L148.17 21.5209L151.102 18.7991ZM150.666 19.9942C151.369 18.2018 152.453 16.9233 153.917 16.0579L151.883 12.6141C149.592 13.9674 147.946 15.9742 146.942 18.5338L150.666 19.9942ZM153.946 16.0406C155.471 15.1049 157.276 14.608 159.428 14.608V10.608C156.631 10.608 154.084 11.2631 151.854 12.6314L153.946 16.0406ZM159.428 14.608C161.691 14.608 163.604 15.0954 165.228 16.0131L167.196 12.5309C164.894 11.2299 162.285 10.608 159.428 10.608V14.608ZM165.228 16.0131C166.874 16.9436 168.148 18.2179 169.079 19.8641L172.561 17.8959C171.273 15.6168 169.475 13.8191 167.196 12.5309L165.228 16.0131ZM169.079 19.8641C169.997 21.4878 170.484 23.4014 170.484 25.664H174.484C174.484 22.8066 173.862 20.1976 172.561 17.8959L169.079 19.8641ZM170.484 25.664V48H174.484V25.664H170.484ZM172.484 46H165.316V50H172.484V46ZM167.316 48V27.584H163.316V48H167.316ZM167.316 27.584C167.316 25.5982 166.953 23.781 166.119 22.2236L162.593 24.1124C163.039 24.9444 163.316 26.0711 163.316 27.584H167.316ZM166.132 22.2492C165.312 20.6635 164.11 19.4255 162.548 18.589L160.66 22.115C161.488 22.5585 162.12 23.1978 162.58 24.0868L166.132 22.2492ZM162.624 18.6314C161.128 17.7454 159.446 17.328 157.636 17.328V21.328C158.813 21.328 159.776 21.5933 160.584 22.0726L162.624 18.6314ZM157.636 17.328C155.825 17.328 154.134 17.7456 152.612 18.6155L154.596 22.0885C155.463 21.5931 156.46 21.328 157.636 21.328V17.328ZM152.633 18.6037C151.116 19.4461 149.95 20.6831 149.14 22.2492L152.692 24.0868C153.162 23.1782 153.788 22.5379 154.575 22.1003L152.633 18.6037ZM149.14 22.2492C148.323 23.8274 147.956 25.6285 147.956 27.584H151.956C151.956 26.1261 152.229 24.9832 152.692 24.0868L149.14 22.2492ZM147.956 27.584V48H151.956V27.584H147.956ZM149.956 46H142.724V50H149.956V46ZM184.384 47.552L183.507 49.3495L183.533 49.3623L183.56 49.3742L184.384 47.552ZM180.288 44.096L178.617 45.1944L178.624 45.2055L178.631 45.2166L180.288 44.096ZM180.032 33.792L178.296 32.7997L178.285 32.8187L178.274 32.8378L180.032 33.792ZM183.936 30.016L182.926 28.29L182.926 28.29L183.936 30.016ZM190.528 27.84L190.846 29.8145L190.853 29.8134L190.528 27.84ZM202.56 25.856H204.56V23.4992L202.235 23.8826L202.56 25.856ZM202.56 31.552L202.904 33.5222L204.56 33.2329V31.552H202.56ZM191.936 33.408L191.592 31.4378L191.586 31.4389L191.936 33.408ZM187.712 35.264L189.091 36.7123L189.109 36.6955L189.126 36.6782L187.712 35.264ZM187.84 41.856L186.528 43.3652L186.562 43.3955L186.599 43.4241L187.84 41.856ZM196.864 41.792L195.872 40.0555L195.861 40.0618L195.85 40.0681L196.864 41.792ZM200.32 38.4L202.053 39.3979L202.06 39.3868L202.066 39.3756L200.32 38.4ZM199.616 20.544L198.281 22.0331L198.308 22.0573L198.336 22.0804L199.616 20.544ZM189.568 20.416L190.712 22.0568L190.721 22.0499L189.568 20.416ZM186.432 24.256L185.538 26.0449L187.429 26.9903L188.268 25.0498L186.432 24.256ZM180.416 21.248L178.543 20.5458L177.911 22.2316L179.522 23.0369L180.416 21.248ZM183.552 16.768L184.875 18.2677L184.887 18.2569L184.9 18.2459L183.552 16.768ZM188.608 13.696L187.915 11.82L187.908 11.8225L187.901 11.8251L188.608 13.696ZM202.048 14.144L201.168 15.9401L201.175 15.9436L201.183 15.947L202.048 14.144ZM206.976 18.432L205.282 19.4955L205.297 19.5187L205.312 19.5414L206.976 18.432ZM208.768 48V50H210.768V48H208.768ZM201.856 48H199.856V50H201.856V48ZM201.856 41.728L202.115 39.7448L199.856 39.4502V41.728H201.856ZM203.328 41.92L205.061 42.9179L206.555 40.3239L203.587 39.9368L203.328 41.92ZM200.192 45.568L198.943 44.0063L198.93 44.0166L198.917 44.0272L200.192 45.568ZM195.904 47.936L195.257 46.0437L195.249 46.0463L195.241 46.0491L195.904 47.936ZM190.592 46.768C188.476 46.768 186.696 46.4029 185.208 45.7298L183.56 49.3742C185.656 50.3225 188.015 50.768 190.592 50.768V46.768ZM185.261 45.7545C183.79 45.0371 182.709 44.1047 181.945 42.9754L178.631 45.2166C179.83 46.9886 181.479 48.3602 183.507 49.3495L185.261 45.7545ZM181.959 42.9976C181.218 41.8694 180.816 40.5123 180.816 38.848H176.816C176.816 41.1943 177.395 43.3359 178.617 45.1944L181.959 42.9976ZM180.816 38.848C180.816 37.2683 181.154 35.9168 181.79 34.7462L178.274 32.8378C177.288 34.6539 176.816 36.673 176.816 38.848H180.816ZM181.768 34.7843C182.419 33.6452 183.445 32.621 184.946 31.742L182.926 28.29C180.928 29.459 179.351 30.9522 178.296 32.7997L181.768 34.7843ZM184.946 31.742C186.426 30.8759 188.371 30.2138 190.846 29.8145L190.21 25.8655C187.394 26.3196 184.945 27.1081 182.926 28.29L184.946 31.742ZM190.853 29.8134L202.885 27.8294L202.235 23.8826L190.203 25.8666L190.853 29.8134ZM200.56 25.856V31.552H204.56V25.856H200.56ZM202.216 29.5818L191.592 31.4378L192.28 35.3782L202.904 33.5222L202.216 29.5818ZM191.586 31.4389C189.466 31.8158 187.601 32.5465 186.298 33.8498L189.126 36.6782C189.615 36.1895 190.566 35.6828 192.286 35.3771L191.586 31.4389ZM186.333 33.8157C184.997 35.0877 184.368 36.742 184.368 38.592H188.368C188.368 37.7114 188.635 37.147 189.091 36.7123L186.333 33.8157ZM184.368 38.592C184.368 40.4822 185.101 42.1246 186.528 43.3652L189.152 40.3468C188.616 39.8807 188.368 39.3471 188.368 38.592H184.368ZM186.599 43.4241C188.045 44.5693 189.812 45.072 191.744 45.072V41.072C190.519 41.072 189.683 40.764 189.081 40.2879L186.599 43.4241ZM191.744 45.072C194.003 45.072 196.072 44.5781 197.878 43.5159L195.85 40.0681C194.754 40.7125 193.41 41.072 191.744 41.072V45.072ZM197.856 43.5285C199.639 42.5098 201.055 41.1317 202.053 39.3979L198.587 37.4021C197.964 38.4843 197.076 39.3675 195.872 40.0555L197.856 43.5285ZM202.066 39.3756C203.052 37.6109 203.536 35.6723 203.536 33.6H199.536C199.536 35.0264 199.209 36.2877 198.574 37.4244L202.066 39.3756ZM203.536 33.6V24.704H199.536V33.6H203.536ZM203.536 24.704C203.536 22.4204 202.645 20.4647 200.896 19.0076L198.336 22.0804C199.147 22.7566 199.536 23.5742 199.536 24.704H203.536ZM200.951 19.0549C199.259 17.5381 197.076 16.88 194.624 16.88V20.88C196.354 20.88 197.498 21.3313 198.281 22.0331L200.951 19.0549ZM194.624 16.88C192.326 16.88 190.231 17.5003 188.415 18.7821L190.721 22.0499C191.807 21.2837 193.082 20.88 194.624 20.88V16.88ZM188.424 18.7752C186.711 19.9695 185.426 21.5431 184.596 23.4622L188.268 25.0498C188.803 23.8115 189.609 22.8251 190.712 22.0568L188.424 18.7752ZM187.326 22.4671L181.31 19.4591L179.522 23.0369L185.538 26.0449L187.326 22.4671ZM182.289 21.9502C182.807 20.5692 183.655 19.3446 184.875 18.2677L182.229 15.2683C180.548 16.7514 179.305 18.5134 178.543 20.5458L182.289 21.9502ZM184.9 18.2459C186.155 17.1013 187.62 16.2071 189.315 15.5669L187.901 11.8251C185.756 12.6356 183.85 13.7894 182.204 15.2901L184.9 18.2459ZM189.301 15.572C191.033 14.9319 192.867 14.608 194.816 14.608V10.608C192.413 10.608 190.108 11.0094 187.915 11.82L189.301 15.572ZM194.816 14.608C197.294 14.608 199.395 15.0716 201.168 15.9401L202.928 12.3479C200.52 11.1684 197.799 10.608 194.816 10.608V14.608ZM201.183 15.947C203.008 16.8233 204.349 18.0099 205.282 19.4955L208.67 17.3685C207.299 15.1847 205.355 13.5127 202.913 12.341L201.183 15.947ZM205.312 19.5414C206.264 20.9694 206.768 22.6646 206.768 24.704H210.768C210.768 21.9647 210.077 19.4786 208.64 17.3226L205.312 19.5414ZM206.768 24.704V48H210.768V24.704H206.768ZM208.768 46H201.856V50H208.768V46ZM203.856 48V41.728H199.856V48H203.856ZM201.597 43.7112L203.069 43.9032L203.587 39.9368L202.115 39.7448L201.597 43.7112ZM201.595 40.9221C200.91 42.1116 200.029 43.1369 198.943 44.0063L201.441 47.1297C202.915 45.9511 204.125 44.5444 205.061 42.9179L201.595 40.9221ZM198.917 44.0272C197.878 44.887 196.665 45.562 195.257 46.0437L196.551 49.8283C198.386 49.2007 200.031 48.297 201.467 47.1088L198.917 44.0272ZM195.241 46.0491C193.909 46.5172 192.367 46.768 190.592 46.768V50.768C192.742 50.768 194.742 50.4641 196.567 49.8229L195.241 46.0491ZM210.376 62.016L210.68 60.0393L210.6 60.0269L210.518 60.0211L210.376 62.016ZM208.904 61.824H206.904V63.4283L208.47 63.7764L208.904 61.824ZM208.904 55.552L209.216 53.5765L206.904 53.2114V55.552H208.904ZM215.624 54.336L214.338 52.8046L214.32 52.8194L214.303 52.8346L215.624 54.336ZM217.224 13.376V11.376H215.224V13.376H217.224ZM224.456 13.376H226.456V11.376H224.456V13.376ZM222.856 56.704L224.575 57.727L224.575 57.727L222.856 56.704ZM218.44 60.736L217.579 58.931L217.562 58.9389L217.546 58.9471L218.44 60.736ZM217.224 8.64H215.224V10.64H217.224V8.64ZM217.224 0.319996V-1.68H215.224V0.319996H217.224ZM224.456 0.319996H226.456V-1.68H224.456V0.319996ZM224.456 8.64V10.64H226.456V8.64H224.456ZM211.912 60.144C211.562 60.144 211.153 60.112 210.68 60.0393L210.072 63.9927C210.708 64.0907 211.323 64.144 211.912 64.144V60.144ZM210.518 60.0211C209.974 59.9822 209.59 59.9277 209.338 59.8716L208.47 63.7764C208.986 63.891 209.583 63.9645 210.234 64.0109L210.518 60.0211ZM210.904 61.824V55.552H206.904V61.824H210.904ZM208.592 57.5275C209.505 57.6716 210.42 57.744 211.336 57.744V53.744C210.631 53.744 209.925 53.6884 209.216 53.5765L208.592 57.5275ZM211.336 57.744C213.483 57.744 215.426 57.1747 216.945 55.8374L214.303 52.8346C213.689 53.3747 212.773 53.744 211.336 53.744V57.744ZM216.91 55.8674C218.563 54.4792 219.224 52.4655 219.224 50.24H215.224C215.224 51.6838 214.818 52.4008 214.338 52.8046L216.91 55.8674ZM219.224 50.24V13.376H215.224V50.24H219.224ZM217.224 15.376H224.456V11.376H217.224V15.376ZM222.456 13.376V50.24H226.456V13.376H222.456ZM222.456 50.24C222.456 52.4719 221.985 54.2569 221.137 55.681L224.575 57.727C225.86 55.5671 226.456 53.0427 226.456 50.24H222.456ZM221.137 55.681C220.272 57.1343 219.098 58.2057 217.579 58.931L219.301 62.541C221.536 61.4743 223.306 59.8577 224.575 57.727L221.137 55.681ZM217.546 58.9471C215.992 59.7242 214.131 60.144 211.912 60.144V64.144C214.642 64.144 217.134 63.6252 219.334 62.5249L217.546 58.9471ZM219.224 8.64V0.319996H215.224V8.64H219.224ZM217.224 2.32H224.456V-1.68H217.224V2.32ZM222.456 0.319996V8.64H226.456V0.319996H222.456ZM224.456 6.64H217.224V10.64H224.456V6.64ZM232.911 48H230.911V50H232.911V48ZM232.911 13.376V11.376H230.911V13.376H232.911ZM239.824 13.376H241.824V11.376H239.824V13.376ZM239.824 20.864L238.245 22.0919L241.824 26.6931V20.864H239.824ZM238.928 19.712L237.017 19.1214L236.709 20.1172L237.349 20.9399L238.928 19.712ZM242.896 14.4L241.839 12.7019L241.839 12.7019L242.896 14.4ZM256.848 14.848L255.701 16.4865L255.719 16.4995L255.738 16.5121L256.848 14.848ZM261.2 20.672L261.386 22.6633L263.813 22.4358L263.116 20.1004L261.2 20.672ZM259.152 20.864L257.275 20.1713L256.175 23.1518L259.338 22.8553L259.152 20.864ZM263.824 14.656L262.745 12.9715L262.738 12.9764L262.73 12.9815L263.824 14.656ZM277.584 14.272L276.583 16.0037L276.591 16.0085L276.599 16.0131L277.584 14.272ZM282.256 18.88L280.531 19.8924L280.531 19.8924L282.256 18.88ZM283.984 48V50H285.984V48H283.984ZM276.752 48H274.752V50H276.752V48ZM275.792 23.168L273.99 24.0375L274.009 24.0754L274.029 24.1124L275.792 23.168ZM273.232 20.352L272.153 22.0365L272.192 22.0614L272.232 22.0844L273.232 20.352ZM265.616 20.352L266.615 22.0844L266.64 22.0702L266.664 22.0553L265.616 20.352ZM262.992 23.168L264.768 24.0868L264.768 24.0868L262.992 23.168ZM262.032 48V50H264.032V48H262.032ZM254.864 48H252.864V50H254.864V48ZM253.904 23.168L252.102 24.0375L252.121 24.0754L252.141 24.1124L253.904 23.168ZM251.344 20.352L250.265 22.0365L250.304 22.0614L250.344 22.0844L251.344 20.352ZM243.664 20.352L244.663 22.0844L244.688 22.0702L244.712 22.0553L243.664 20.352ZM241.04 23.168L239.263 22.2492L239.25 22.2737L239.238 22.2985L241.04 23.168ZM240.144 48V50H242.144V48H240.144ZM234.911 48V13.376H230.911V48H234.911ZM232.911 15.376H239.824V11.376H232.911V15.376ZM237.824 13.376V20.864H241.824V13.376H237.824ZM241.402 19.6361L240.506 18.4841L237.349 20.9399L238.245 22.0919L241.402 19.6361ZM240.838 20.3026C241.435 18.3731 242.477 17.0157 243.952 16.0981L241.839 12.7019C239.474 14.1736 237.871 16.3576 237.017 19.1214L240.838 20.3026ZM243.952 16.0981C245.525 15.1192 247.35 14.608 249.488 14.608V10.608C246.676 10.608 244.106 11.2915 241.839 12.7019L243.952 16.0981ZM249.488 14.608C251.879 14.608 253.926 15.2441 255.701 16.4865L257.994 13.2095C255.503 11.4652 252.643 10.608 249.488 10.608V14.608ZM255.738 16.5121C257.539 17.7125 258.695 19.2734 259.283 21.2436L263.116 20.1004C262.253 17.2066 260.508 14.8848 257.957 13.1839L255.738 16.5121ZM261.013 18.6807L258.965 18.8727L259.338 22.8553L261.386 22.6633L261.013 18.6807ZM261.028 21.5567C261.931 19.1098 263.249 17.4202 264.917 16.3305L262.73 12.9815C260.217 14.6225 258.42 17.0716 257.275 20.1713L261.028 21.5567ZM264.902 16.3405C266.688 15.1974 268.74 14.608 271.12 14.608V10.608C268.038 10.608 265.226 11.384 262.745 12.9715L264.902 16.3405ZM271.12 14.608C273.186 14.608 274.991 15.0837 276.583 16.0037L278.584 12.5403C276.336 11.2416 273.832 10.608 271.12 10.608V14.608ZM276.599 16.0131C278.252 16.9473 279.555 18.2306 280.531 19.8924L283.98 17.8676C282.652 15.604 280.84 13.8153 278.568 12.5309L276.599 16.0131ZM280.531 19.8924C281.484 21.5163 281.984 23.3998 281.984 25.6H285.984C285.984 22.7655 285.331 20.1691 283.98 17.8676L280.531 19.8924ZM281.984 25.6V48H285.984V25.6H281.984ZM283.984 46H276.752V50H283.984V46ZM278.752 48V27.584H274.752V48H278.752ZM278.752 27.584C278.752 25.5982 278.389 23.781 277.554 22.2236L274.029 24.1124C274.474 24.9444 274.752 26.0711 274.752 27.584H278.752ZM277.593 22.2985C276.834 20.7273 275.714 19.4751 274.231 18.6196L272.232 22.0844C272.968 22.5089 273.554 23.1341 273.99 24.0375L277.593 22.2985ZM274.31 18.6675C272.876 17.7501 271.231 17.328 269.456 17.328V21.328C270.581 21.328 271.453 21.5886 272.153 22.0365L274.31 18.6675ZM269.456 17.328C267.678 17.328 266.027 17.7505 264.567 18.6487L266.664 22.0553C267.423 21.5881 268.332 21.328 269.456 21.328V17.328ZM264.616 18.6196C263.146 19.4676 262.015 20.7029 261.215 22.2492L264.768 24.0868C265.248 23.1584 265.866 22.5164 266.615 22.0844L264.616 18.6196ZM261.215 22.2492C260.399 23.8274 260.032 25.6285 260.032 27.584H264.032C264.032 26.1261 264.304 24.9832 264.768 24.0868L261.215 22.2492ZM260.032 27.584V48H264.032V27.584H260.032ZM262.032 46H254.864V50H262.032V46ZM256.864 48V27.584H252.864V48H256.864ZM256.864 27.584C256.864 25.5982 256.501 23.781 255.666 22.2236L252.141 24.1124C252.586 24.9444 252.864 26.0711 252.864 27.584H256.864ZM255.705 22.2985C254.946 20.7273 253.826 19.4751 252.343 18.6196L250.344 22.0844C251.08 22.5089 251.666 23.1341 252.102 24.0375L255.705 22.2985ZM252.422 18.6675C250.979 17.7443 249.309 17.328 247.503 17.328V21.328C248.684 21.328 249.575 21.5944 250.265 22.0365L252.422 18.6675ZM247.503 17.328C245.726 17.328 244.075 17.7505 242.615 18.6487L244.712 22.0553C245.471 21.5881 246.38 21.328 247.503 21.328V17.328ZM242.664 18.6196C241.194 19.4676 240.063 20.7029 239.263 22.2492L242.816 24.0868C243.296 23.1584 243.914 22.5164 244.663 22.0844L242.664 18.6196ZM239.238 22.2985C238.482 23.8646 238.144 25.6474 238.144 27.584H242.144C242.144 26.1072 242.402 24.9461 242.841 24.0375L239.238 22.2985ZM238.144 27.584V48H242.144V27.584H238.144ZM240.144 46H232.911V50H240.144V46ZM291.611 61.888L292.003 59.9268L291.963 59.9188L291.923 59.9125L291.611 61.888ZM289.371 61.248H287.371V62.556L288.569 63.0803L289.371 61.248ZM289.371 55.04L289.856 53.0997L287.371 52.4784V55.04H289.371ZM291.227 55.36L291.575 53.3904L291.518 53.3804L291.461 53.3737L291.227 55.36ZM297.755 54.208L296.443 52.6988L296.408 52.7292L296.374 52.7613L297.755 54.208ZM300.379 50.176L298.548 49.372L298.541 49.3878L298.534 49.4037L300.379 50.176ZM302.683 44.928L304.683 44.9701L300.852 44.124L302.683 44.928ZM302.555 51.008L300.697 51.7475L304.555 51.0501L302.555 51.008ZM287.579 13.376V11.376H284.631L285.721 14.1155L287.579 13.376ZM295.323 13.376L297.19 12.6597L296.698 11.376H295.323V13.376ZM306.395 42.24V44.24H309.304L308.262 41.5237L306.395 42.24ZM303.771 42.24L301.902 41.5273L300.868 44.24H303.771V42.24ZM314.779 13.376V11.376H313.401L312.91 12.6633L314.779 13.376ZM322.587 13.376L324.445 14.1161L325.536 11.376H322.587V13.376ZM307.291 51.776L305.433 51.0359L305.431 51.0399L307.291 51.776ZM304.219 57.152L302.661 55.8973L302.642 55.9209L302.624 55.9451L304.219 57.152ZM299.931 60.8L299.018 59.0204L298.991 59.0345L298.964 59.0495L299.931 60.8ZM294.171 60.144C293.452 60.144 292.73 60.0722 292.003 59.9268L291.219 63.8492C292.199 64.0451 293.183 64.144 294.171 64.144V60.144ZM291.923 59.9125C291.264 59.8084 290.684 59.6394 290.173 59.4157L288.569 63.0803C289.423 63.454 290.337 63.7116 291.299 63.8635L291.923 59.9125ZM291.371 61.248V55.04H287.371V61.248H291.371ZM288.886 56.9803C289.505 57.1351 290.213 57.2545 290.993 57.3463L291.461 53.3737C290.79 53.2949 290.261 53.2009 289.856 53.0997L288.886 56.9803ZM290.879 57.3296C291.711 57.4762 292.531 57.552 293.339 57.552V53.552C292.782 53.552 292.194 53.4998 291.575 53.3904L290.879 57.3296ZM293.339 57.552C295.587 57.552 297.667 57.0574 299.136 55.6547L296.374 52.7613C295.966 53.1506 295.102 53.552 293.339 53.552V57.552ZM299.067 55.7172C300.371 54.5839 301.394 52.9301 302.224 50.9483L298.534 49.4037C297.828 51.0913 297.102 52.1255 296.443 52.6988L299.067 55.7172ZM302.21 50.98L304.514 45.732L300.852 44.124L298.548 49.372L302.21 50.98ZM300.683 44.8859L300.555 50.9659L304.555 51.0501L304.683 44.9701L300.683 44.8859ZM304.413 50.2685L289.437 12.6365L285.721 14.1155L300.697 51.7475L304.413 50.2685ZM287.579 15.376H295.323V11.376H287.579V15.376ZM293.456 14.0923L304.528 42.9563L308.262 41.5237L297.19 12.6597L293.456 14.0923ZM306.395 40.24H303.771V44.24H306.395V40.24ZM305.64 42.9527L316.648 14.0887L312.91 12.6633L301.902 41.5273L305.64 42.9527ZM314.779 15.376H322.587V11.376H314.779V15.376ZM320.729 12.6359L305.433 51.0359L309.149 52.5161L324.445 14.1161L320.729 12.6359ZM305.431 51.0399C304.686 52.9224 303.759 54.5351 302.661 55.8973L305.777 58.4067C307.154 56.6969 308.274 54.7256 309.151 52.5121L305.431 51.0399ZM302.624 55.9451C301.6 57.2984 300.399 58.3122 299.018 59.0204L300.844 62.5796C302.791 61.5811 304.449 60.1629 305.814 58.3589L302.624 55.9451ZM298.964 59.0495C297.692 59.7523 296.118 60.144 294.171 60.144V64.144C296.661 64.144 298.927 63.6397 300.898 62.5505L298.964 59.0495ZM342.18 46.144L341.077 47.8122L341.083 47.8163L341.089 47.8203L342.18 46.144ZM336.612 39.104L335.759 37.2948L334.111 38.0718L334.732 39.7853L336.612 39.104ZM342.18 36.48L343.984 35.6171L343.126 33.8231L341.327 34.6708L342.18 36.48ZM346.02 41.152L344.862 42.7824L344.872 42.7894L344.882 42.7964L346.02 41.152ZM355.684 41.728L356.853 43.3511L356.853 43.3511L355.684 41.728ZM356.58 36.544L355.053 37.8359L355.079 37.8662L355.106 37.8954L356.58 36.544ZM354.788 35.2L353.894 36.9889L353.915 36.9995L353.936 37.0096L354.788 35.2ZM352.676 34.432L352.133 36.3567L352.175 36.3687L352.218 36.3788L352.676 34.432ZM347.236 32.896L346.687 34.8191L346.693 34.8207L347.236 32.896ZM340.516 29.056L338.976 30.3327L338.993 30.3531L339.011 30.373L340.516 29.056ZM339.94 17.536L341.583 18.6768L341.59 18.6663L341.597 18.6557L339.94 17.536ZM344.356 13.888L343.528 12.0673L343.528 12.0673L344.356 13.888ZM359.14 14.976L358.064 16.6621L358.075 16.6688L358.085 16.6753L359.14 14.976ZM364.388 21.44L365.241 23.2492L366.899 22.4675L366.264 20.7473L364.388 21.44ZM358.82 24.064L356.97 24.8231L357.769 26.7705L359.673 25.8732L358.82 24.064ZM355.556 20.096L354.435 21.7526L354.446 21.7601L354.458 21.7674L355.556 20.096ZM346.852 19.776L348.075 21.3586L348.097 21.3415L348.118 21.3239L346.852 19.776ZM346.084 24.704L344.499 25.9234L344.523 25.9544L344.548 25.9844L346.084 24.704ZM347.748 25.984L346.854 27.7729L346.899 27.7958L346.946 27.8163L347.748 25.984ZM349.86 26.752L350.427 24.834L350.424 24.8333L349.86 26.752ZM355.492 28.416L354.925 30.334L354.936 30.3371L354.946 30.3401L355.492 28.416ZM362.084 32.256L360.581 33.5756L360.589 33.5848L360.597 33.5939L362.084 32.256ZM362.724 43.84L361.088 42.6901L361.081 42.6992L362.724 43.84ZM358.244 47.488L359.056 49.3156L359.073 49.3081L359.09 49.3004L358.244 47.488ZM351.524 46.768C348.328 46.768 345.601 45.984 343.271 44.4677L341.089 47.8203C344.135 49.8026 347.637 50.768 351.524 50.768V46.768ZM343.283 44.4758C340.991 42.9601 339.411 40.9572 338.492 38.4227L334.732 39.7853C335.947 43.1388 338.078 45.8292 341.077 47.8122L343.283 44.4758ZM337.465 40.9132L343.033 38.2892L341.327 34.6708L335.759 37.2948L337.465 40.9132ZM340.376 37.3429C341.447 39.5826 342.938 41.4155 344.862 42.7824L347.178 39.5216C345.86 38.5845 344.79 37.3027 343.984 35.6171L340.376 37.3429ZM344.882 42.7964C346.877 44.1777 349.108 44.88 351.524 44.88V40.88C349.929 40.88 348.491 40.4303 347.158 39.5076L344.882 42.7964ZM351.524 44.88C353.525 44.88 355.357 44.4282 356.853 43.3511L354.515 40.1049C353.878 40.5638 352.936 40.88 351.524 40.88V44.88ZM356.853 43.3511C358.445 42.2044 359.284 40.5531 359.284 38.592H355.284C355.284 39.2763 355.056 39.7156 354.515 40.1049L356.853 43.3511ZM359.284 38.592C359.284 37.3582 358.935 36.1532 358.054 35.1926L355.106 37.8954C355.164 37.9588 355.284 38.1191 355.284 38.592H359.284ZM358.107 35.2521C357.434 34.4567 356.597 33.8411 355.64 33.3904L353.936 37.0096C354.429 37.2415 354.788 37.522 355.053 37.8359L358.107 35.2521ZM355.682 33.4111C354.864 33.0021 354.014 32.6922 353.134 32.4852L352.218 36.3788C352.789 36.5131 353.346 36.7152 353.894 36.9889L355.682 33.4111ZM353.219 32.5073L347.779 30.9713L346.693 34.8207L352.133 36.3567L353.219 32.5073ZM347.785 30.973C345.037 30.1876 343.183 29.0672 342.021 27.739L339.011 30.373C340.835 32.4582 343.462 33.8978 346.687 34.819L347.785 30.973ZM342.056 27.7793C340.907 26.3943 340.34 24.8208 340.34 22.976H336.34C336.34 25.7392 337.224 28.2191 338.976 30.3327L342.056 27.7793ZM340.34 22.976C340.34 21.243 340.776 19.8389 341.583 18.6768L338.297 16.3952C336.971 18.3051 336.34 20.5276 336.34 22.976H340.34ZM341.597 18.6557C342.44 17.4079 343.613 16.4224 345.184 15.7087L343.528 12.0673C341.344 13.0602 339.573 14.5068 338.283 16.4163L341.597 18.6557ZM345.184 15.7087C346.767 14.9888 348.591 14.608 350.692 14.608V10.608C348.099 10.608 345.699 11.0805 343.528 12.0673L345.184 15.7087ZM350.692 14.608C353.498 14.608 355.935 15.304 358.064 16.6621L360.216 13.2899C357.395 11.4906 354.2 10.608 350.692 10.608V14.608ZM358.085 16.6753C360.176 17.9727 361.639 19.7702 362.512 22.1327L366.264 20.7473C365.089 17.5631 363.054 15.0513 360.195 13.2767L358.085 16.6753ZM363.535 19.6308L357.967 22.2548L359.673 25.8732L365.241 23.2492L363.535 19.6308ZM360.67 23.3049C359.836 21.2706 358.487 19.6288 356.654 18.4246L354.458 21.7674C355.612 22.5258 356.439 23.5294 356.97 24.8231L360.67 23.3049ZM356.677 18.4394C354.879 17.2233 352.842 16.624 350.628 16.624V20.624C352.083 20.624 353.332 21.006 354.435 21.7526L356.677 18.4394ZM350.628 16.624C348.729 16.624 346.977 17.0894 345.586 18.2281L348.118 21.3239C348.604 20.9266 349.37 20.624 350.628 20.624V16.624ZM345.629 18.1934C344.196 19.3006 343.444 20.8471 343.444 22.656H347.444C347.444 22.0756 347.63 21.702 348.075 21.3586L345.629 18.1934ZM343.444 22.656C343.444 23.8349 343.762 24.9655 344.499 25.9234L347.669 23.4846C347.553 23.3332 347.444 23.0985 347.444 22.656H343.444ZM344.548 25.9844C345.175 26.737 345.96 27.326 346.854 27.7729L348.642 24.1951C348.171 23.9594 347.847 23.695 347.62 23.4236L344.548 25.9844ZM346.946 27.8163C347.707 28.1492 348.491 28.434 349.296 28.6707L350.424 24.8333C349.779 24.6434 349.154 24.4161 348.55 24.1517L346.946 27.8163ZM349.293 28.67L354.925 30.334L356.059 26.498L350.427 24.834L349.293 28.67ZM354.946 30.3401C357.536 31.0745 359.361 32.186 360.581 33.5756L363.587 30.9364C361.735 28.8273 359.165 27.3788 356.038 26.4919L354.946 30.3401ZM360.597 33.5939C361.788 34.9173 362.388 36.4827 362.388 38.4H366.388C366.388 35.5386 365.452 33.008 363.571 30.9181L360.597 33.5939ZM362.388 38.4C362.388 40.0632 361.945 41.4694 361.088 42.6901L364.36 44.9899C365.721 43.0532 366.388 40.8328 366.388 38.4H362.388ZM361.081 42.6992C360.242 43.9079 359.041 44.9089 357.398 45.6756L359.09 49.3004C361.287 48.2751 363.073 46.8441 364.367 44.9808L361.081 42.6992ZM357.432 45.6604C355.817 46.3781 353.864 46.768 351.524 46.768V50.768C354.304 50.768 356.831 50.3046 359.056 49.3156L357.432 45.6604ZM371.474 48H369.474V50H371.474V48ZM371.474 13.376V11.376H369.474V13.376H371.474ZM378.706 13.376H380.706V11.376H378.706V13.376ZM378.706 48V50H380.706V48H378.706ZM371.474 8.64H369.474V10.64H371.474V8.64ZM371.474 0.319996V-1.68H369.474V0.319996H371.474ZM378.706 0.319996H380.706V-1.68H378.706V0.319996ZM378.706 8.64V10.64H380.706V8.64H378.706ZM373.474 48V13.376H369.474V48H373.474ZM371.474 15.376H378.706V11.376H371.474V15.376ZM376.706 13.376V48H380.706V13.376H376.706ZM378.706 46H371.474V50H378.706V46ZM373.474 8.64V0.319996H369.474V8.64H373.474ZM371.474 2.32H378.706V-1.68H371.474V2.32ZM376.706 0.319996V8.64H380.706V0.319996H376.706ZM378.706 6.64H371.474V10.64H378.706V6.64ZM394.202 46.4L393.156 48.1052L393.172 48.115L393.189 48.1246L394.202 46.4ZM387.994 39.872L386.233 40.8202L386.239 40.8316L387.994 39.872ZM387.994 21.312L386.257 20.3197L386.251 20.3302L386.245 20.3407L387.994 21.312ZM394.138 14.976L395.166 16.691L395.177 16.6847L395.187 16.6783L394.138 14.976ZM409.818 13.952L409.016 15.7843L409.016 15.7843L409.818 13.952ZM415.002 17.664L413.509 18.9952L413.518 19.0054L413.527 19.0154L415.002 17.664ZM418.201 22.976L416.321 23.6563L416.327 23.6738L416.334 23.6913L418.201 22.976ZM419.29 31.104L421.284 31.2465L421.284 31.2465L419.29 31.104ZM419.034 32.768V34.768H420.595L420.974 33.2531L419.034 32.768ZM391.45 32.768H389.45V34.768H391.45V32.768ZM391.45 27.008V25.008H389.45V27.008H391.45ZM414.938 27.008L416.147 28.6009L420.879 25.008H414.938V27.008ZM411.482 29.632L409.522 29.2321L408.46 34.4376L412.691 31.2249L411.482 29.632ZM411.034 24.064L409.183 24.8231L409.195 24.8521L409.208 24.8807L411.034 24.064ZM407.834 20.16L406.69 21.8008L406.718 21.8205L406.747 21.8391L407.834 20.16ZM397.722 20.16L398.786 21.8533L398.803 21.8425L398.82 21.8314L397.722 20.16ZM394.266 24.256L396.08 25.0969L396.084 25.0886L396.088 25.0803L394.266 24.256ZM393.306 30.656L395.297 30.8371L395.312 30.679L395.301 30.5207L393.306 30.656ZM394.266 36.8L392.468 37.6768L392.477 37.6944L392.485 37.7118L394.266 36.8ZM397.978 40.896L396.922 42.5946L396.932 42.6008L396.942 42.607L397.978 40.896ZM408.794 40.96L407.729 39.2667L407.718 39.2737L407.707 39.2809L408.794 40.96ZM412.314 37.312L413.192 35.5154L411.508 34.6913L410.577 36.3197L412.314 37.312ZM418.201 40.192L420.045 40.9681L420.778 39.226L419.08 38.3954L418.201 40.192ZM415.002 44.608L416.347 46.0879L416.349 46.0859L415.002 44.608ZM409.882 47.68L410.575 49.556L410.586 49.5519L410.597 49.5477L409.882 47.68ZM395.482 60.928L396.833 59.4537L396.822 59.4434L396.81 59.4332L395.482 60.928ZM394.266 51.328L392.536 50.3237L392.517 50.3564L392.499 50.3897L394.266 51.328ZM397.466 47.936L398.599 49.5841L398.609 49.5768L397.466 47.936ZM402.458 45.888V43.888H402.259L402.065 43.9268L402.458 45.888ZM404.378 45.888H406.378V43.888H404.378V45.888ZM404.378 48L404.752 49.9647L406.378 49.655V48H404.378ZM401.882 49.216L400.601 47.6796L400.601 47.6796L401.882 49.216ZM400.026 51.584L398.237 50.6896L398.229 50.7053L398.221 50.7211L400.026 51.584ZM404.826 57.6L404.123 55.7273L404.05 55.7547L403.98 55.7876L404.826 57.6ZM406.746 56.448L408.614 55.7337L407.6 53.0817L405.444 54.9295L406.746 56.448ZM408.41 60.8L409.659 62.3617L410.799 61.4496L410.278 60.0857L408.41 60.8ZM405.402 62.4L404.769 60.5026L404.738 60.5131L404.707 60.5245L405.402 62.4ZM403.418 46.768C400.278 46.768 397.563 46.0546 395.214 44.6754L393.189 48.1246C396.216 49.9027 399.645 50.768 403.418 50.768V46.768ZM395.247 44.6948C392.9 43.2564 391.075 41.3379 389.748 38.9124L386.239 40.8316C387.899 43.8675 390.213 46.3009 393.156 48.1052L395.247 44.6948ZM389.754 38.9238C388.431 36.4659 387.754 33.7027 387.754 30.592H383.754C383.754 34.3079 384.569 37.7314 386.233 40.8202L389.754 38.9238ZM387.754 30.592C387.754 27.3857 388.435 24.6353 389.742 22.2833L386.245 20.3407C384.565 23.3647 383.754 26.8009 383.754 30.592H387.754ZM389.73 22.3043C391.103 19.9024 392.911 18.044 395.166 16.691L393.109 13.261C390.244 14.98 387.956 17.3456 386.257 20.3197L389.73 22.3043ZM395.187 16.6783C397.407 15.3095 399.939 14.608 402.842 14.608V10.608C399.258 10.608 395.988 11.4852 393.088 13.2737L395.187 16.6783ZM402.842 14.608C405.213 14.608 407.259 15.0156 409.016 15.7843L410.619 12.1197C408.28 11.0964 405.675 10.608 402.842 10.608V14.608ZM409.016 15.7843C410.815 16.5716 412.303 17.6435 413.509 18.9952L416.494 16.3328C414.884 14.5272 412.916 13.1244 410.619 12.1197L409.016 15.7843ZM413.527 19.0154C414.752 20.3521 415.683 21.8933 416.321 23.6563L420.082 22.2957C419.269 20.048 418.067 18.0479 416.476 16.3125L413.527 19.0154ZM416.334 23.6913C417.01 25.4563 417.354 27.346 417.354 29.376H421.354C421.354 26.8833 420.929 24.5063 420.069 22.2607L416.334 23.6913ZM417.354 29.376C417.354 29.8795 417.334 30.4079 417.295 30.9615L421.284 31.2465C421.33 30.6054 421.354 29.9818 421.354 29.376H417.354ZM417.295 30.9615C417.259 31.4584 417.19 31.8971 417.093 32.2829L420.974 33.2531C421.133 32.6149 421.235 31.9443 421.284 31.2465L417.295 30.9615ZM419.034 30.768H391.45V34.768H419.034V30.768ZM393.45 32.768V27.008H389.45V32.768H393.45ZM391.45 29.008H414.938V25.008H391.45V29.008ZM413.728 25.4151L410.272 28.0391L412.691 31.2249L416.147 28.6009L413.728 25.4151ZM413.441 30.0319C413.934 27.616 413.787 25.3219 412.859 23.2473L409.208 24.8807C409.73 26.0488 409.882 27.4667 409.522 29.2321L413.441 30.0319ZM412.884 23.3049C412.053 21.2799 410.728 19.6506 408.92 18.4809L406.747 21.8391C407.841 22.5468 408.649 23.5201 409.183 24.8231L412.884 23.3049ZM408.977 18.5192C407.194 17.2767 405.12 16.688 402.842 16.688V20.688C404.403 20.688 405.657 21.0806 406.69 21.8008L408.977 18.5192ZM402.842 16.688C400.562 16.688 398.467 17.2768 396.623 18.4886L398.82 21.8314C399.962 21.0806 401.281 20.688 402.842 20.688V16.688ZM396.657 18.4667C394.794 19.638 393.396 21.3246 392.443 23.4317L396.088 25.0803C396.756 23.6034 397.663 22.5594 398.786 21.8533L396.657 18.4667ZM392.451 23.4151C391.462 25.5492 391.123 28.0388 391.31 30.7913L395.301 30.5207C395.146 28.2385 395.448 26.4614 396.08 25.0969L392.451 23.4151ZM391.314 30.4749C391.074 33.1085 391.424 35.5362 392.468 37.6768L396.063 35.9232C395.401 34.5651 395.11 32.8968 395.297 30.8371L391.314 30.4749ZM392.485 37.7118C393.537 39.7649 395.017 41.4104 396.922 42.5946L399.033 39.1974C397.781 38.4189 396.786 37.3338 396.046 35.8882L392.485 37.7118ZM396.942 42.607C398.901 43.7926 401.099 44.368 403.482 44.368V40.368C401.768 40.368 400.297 39.9621 399.013 39.185L396.942 42.607ZM403.482 44.368C405.876 44.368 408.043 43.8276 409.88 42.6391L407.707 39.2809C406.642 39.9697 405.268 40.368 403.482 40.368V44.368ZM409.858 42.6533C411.622 41.5444 413.029 40.0904 414.05 38.3043L410.577 36.3197C409.891 37.5202 408.952 38.4983 407.729 39.2667L409.858 42.6533ZM411.435 39.1086L417.323 41.9886L419.08 38.3954L413.192 35.5154L411.435 39.1086ZM416.358 39.4159C415.8 40.7406 414.915 41.9799 413.654 43.1301L416.349 46.0859C417.989 44.5908 419.237 42.886 420.045 40.9681L416.358 39.4159ZM413.656 43.1281C412.454 44.2207 410.969 45.1219 409.166 45.8123L410.597 49.5477C412.805 48.7021 414.733 47.5553 416.347 46.0879L413.656 43.1281ZM409.188 45.804C407.473 46.438 405.556 46.768 403.418 46.768V50.768C405.972 50.768 408.365 50.3727 410.575 49.556L409.188 45.804ZM401.626 61.04C399.446 61.04 397.92 60.4504 396.833 59.4537L394.13 62.4023C396.115 64.2216 398.685 65.04 401.626 65.04V61.04ZM396.81 59.4332C395.71 58.4548 395.178 57.2747 395.178 55.744H391.178C391.178 58.3946 392.181 60.6705 394.153 62.4228L396.81 59.4332ZM395.178 55.744C395.178 54.4853 395.463 53.3364 396.032 52.2663L392.499 50.3897C391.617 52.0502 391.178 53.8453 391.178 55.744H395.178ZM395.995 52.3323C396.602 51.2866 397.457 50.3692 398.599 49.5841L396.332 46.2879C394.744 47.3802 393.465 48.7241 392.536 50.3237L395.995 52.3323ZM398.609 49.5768C399.762 48.7735 401.162 48.1868 402.85 47.8492L402.065 43.9268C399.913 44.3572 397.985 45.1359 396.322 46.2952L398.609 49.5768ZM402.458 47.888H404.378V43.888H402.458V47.888ZM402.378 45.888V48H406.378V45.888H402.378ZM404.003 46.0353C402.742 46.2755 401.604 46.8436 400.601 47.6796L403.162 50.7524C403.695 50.3084 404.221 50.0658 404.752 49.9647L404.003 46.0353ZM400.601 47.6796C399.611 48.5049 398.823 49.5166 398.237 50.6896L401.814 52.4784C402.167 51.774 402.616 51.2071 403.162 50.7524L400.601 47.6796ZM398.221 50.7211C397.615 51.9876 397.322 53.3514 397.322 54.784H401.322C401.322 53.9126 401.497 53.143 401.83 52.4469L398.221 50.7211ZM397.322 54.784C397.322 56.2888 397.873 57.6463 399.028 58.6572L401.663 55.6468C401.452 55.463 401.322 55.2419 401.322 54.784H397.322ZM399.028 58.6572C400.071 59.5691 401.326 60.048 402.714 60.048V56.048C402.309 56.048 401.986 55.9295 401.663 55.6468L399.028 58.6572ZM402.714 60.048C403.748 60.048 404.744 59.8451 405.671 59.4124L403.98 55.7876C403.627 55.9522 403.215 56.048 402.714 56.048V60.048ZM405.528 59.4727C406.446 59.1283 407.286 58.6186 408.047 57.9665L405.444 54.9295C405.01 55.3014 404.57 55.5597 404.123 55.7273L405.528 59.4727ZM404.877 57.1623L406.541 61.5143L410.278 60.0857L408.614 55.7337L404.877 57.1623ZM407.16 59.2383C406.51 59.7581 405.722 60.185 404.769 60.5026L406.034 64.2974C407.385 63.847 408.602 63.2073 409.659 62.3617L407.16 59.2383ZM404.707 60.5245C403.801 60.8602 402.78 61.04 401.626 61.04V65.04C403.202 65.04 404.698 64.7932 406.096 64.2755L404.707 60.5245Z" fill="white" fill-opacity="0.1"/>
</svg>
